# Made in Blockbench 4.8.3
mtllib plantlike_offset_9.mtl

o cube
v 0.3535533905932738 -0.0625 0.35355339059327373
v -0.3535533905932738 -0.0625 -0.35355339059327373
v 0.3535533905932738 -1.0625 0.35355339059327373
v -0.3535533905932738 -1.0625 -0.35355339059327373
vt 1 0
vt 1 1
vt 0 1
vt 0 0
vn -0.7071067811865475 0 0.7071067811865476
usemtl none
f 3/1/1 1/2/1 2/3/1 4/4/1
o cube
v -0.3535533905932738 -0.0625 0.35355339059327373
v -0.3535533905932738 -1.0625 0.35355339059327373
v 0.3535533905932738 -1.0625 -0.35355339059327373
v 0.3535533905932738 -0.0625 -0.35355339059327373
vt 1 0
vt 1 1
vt 0 1
vt 0 0
vn -0.7071067811865475 0 -0.7071067811865476
usemtl none
f 6/5/2 5/6/2 8/7/2 7/8/2