# Made in Blockbench 4.9.1
mtllib sf_projectiles_shadow.mtl

o cuboid
v 0.5 0.6875 0.1875
v 0.5 0.6875 -0.1875
v 0.5 0.3125 0.1875
v 0.5 0.3125 -0.1875
v -0.5 0.6875 0.1875
v -0.5 0.6875 -0.1875
v -0.5 0.3125 0.1875
v -0.5 0.3125 -0.1875
v 0.1875 0.6875 -0.1875
v 0.1875 0.3125 -0.1875
v 0.1875 0.3125 0.1875
v 0.1875 0.6875 0.1875
v -0.1875 0.6875 -0.1875
v -0.1875 0.3125 -0.1875
v -0.1875 0.3125 0.1875
v -0.1875 0.6875 0.1875
v 0.1875 1 -0.1875
v -0.1875 1 0.1875
v -0.1875 1 -0.1875
v 0.1875 1 0.1875
v 0.1875 0 0.1875
v -0.1875 0 -0.1875
v -0.1875 0 0.1875
v 0.1875 0 -0.1875
v 0.1875 0.6875 0.5
v -0.1875 0.3125 0.5
v -0.1875 0.6875 0.5
v 0.1875 0.3125 0.5
v 0.1875 0.3125 -0.5
v -0.1875 0.6875 -0.5
v -0.1875 0.3125 -0.5
v 0.1875 0.6875 -0.5
vt 0.6875 0.6875000000000002
vt 0.31250000000000044 0.6875000000000002
vt 0.31250000000000044 0.3125000000000002
vt 0.6875 0.3125000000000002
vt 0.6874999999999996 0.3125000000000002
vt 0.6874999999999996 0.6875000000000002
vt 0.3125 0.6875000000000002
vt 0.3125 0.3125000000000002
vt 1 0.6874999999996558
vt 0.6875000000000002 0.6874999999996558
vt 0.6875000000000002 0.3124999999998437
vt 1 0.3124999999998437
vt 1 0.687499999999656
vt 0.6875000000000002 0.687499999999656
vt 0.6875000000000002 0.3124999999998437
vt 1 0.3124999999998437
vt 0 0.6875000000000002
vt 0.3125 0.6875000000000002
vt 0.3125 0.3125000000000002
vt 0 0.3125000000000002
vt 0 0.3125000000000002
vt 0.3125 0.3125000000000002
vt 0.3125 0.6875000000000002
vt 0 0.6875000000000002
vt 0.3125 0.3125000000000002
vt 0.6875 0.3125000000000002
vt 0.6875 0.6875000000000002
vt 0.3125 0.6875000000000002
vt 0.6875000000000002 0.6874996874996557
vt 0.3125000000000002 0.6874996874996557
vt 0.3125000000000002 0.31249968749984314
vt 0.6875000000000002 0.31249968749984314
vt 0.3125 0.6875000000000002
vt 0.6875 0.6875000000000002
vt 0.6875 0.3125000000000002
vt 0.3125 0.3125000000000002
vt 0.6875000000000002 0.6875003124996557
vt 0.3125000000000002 0.6875003124996557
vt 0.3125000000000002 0.31250031249984334
vt 0.6875000000000002 0.31250031249984334
vt 1 0.6875000000000002
vt 0.6875 0.6875000000000002
vt 0.6875 0.3125000000000002
vt 1 0.3125000000000002
vt 2.220446049250313e-16 0.3124999999998437
vt 0.3125000000000002 0.3124999999998437
vt 0.3125000000000002 0.687499999999656
vt 2.220446049250313e-16 0.687499999999656
vt 1 0.3125000000000002
vt 0.6875 0.3125000000000002
vt 0.6875 0.6875000000000002
vt 1 0.6875000000000002
vt 2.220446049250313e-16 0.3124999999998437
vt 0.3125000000000002 0.3124999999998437
vt 0.3125000000000002 0.6874999999996558
vt 2.220446049250313e-16 0.6874999999996558
vt 0.6875 1
vt 0.3125 1
vt 0.3125 0.6875000000000002
vt 0.6875 0.6875000000000002
vt 0.6875 1
vt 0.3125 1
vt 0.3125 0.6875000000000002
vt 0.6875 0.6875000000000002
vt 0.3125 1
vt 0.6875 1
vt 0.6875 0.6875000000000002
vt 0.3125 0.6875000000000002
vt 0.6875 1
vt 0.31250000000000044 1
vt 0.31250000000000044 0.6875000000000002
vt 0.6875 0.6875000000000002
vt 0.6875 0
vt 0.3125 0
vt 0.3125 0.3125000000000002
vt 0.6875 0.3125000000000002
vt 0.3125 0
vt 0.6875 0
vt 0.6875 0.3125000000000002
vt 0.3125 0.3125000000000002
vt 0.3125 0
vt 0.6875 0
vt 0.6875 0.3125000000000002
vt 0.3125 0.3125000000000002
vt 0.31250000000000044 0
vt 0.6875 0
vt 0.6875 0.3125000000000002
vt 0.31250000000000044 0.3125000000000002
vt 0.3125000000000002 0
vt 0.6875000000000002 0
vt 0.6875000000000002 0.3124999999998437
vt 0.3125000000000002 0.3124999999998437
vt 1 0.3125000000000002
vt 1 0.6875000000000002
vt 0.6875 0.6875000000000002
vt 0.6875 0.3125000000000002
vt 0.6875000000000002 0.9999999999994997
vt 0.3125000000000002 0.9999999999994997
vt 0.3125000000000002 0.687499999999656
vt 0.6875000000000002 0.687499999999656
vt 4.440892098500626e-16 0.6875000000000002
vt 4.440892098500626e-16 0.3125000000000002
vt 0.31250000000000044 0.3125000000000002
vt 0.31250000000000044 0.6875000000000002
vt 0.3125000000000002 0
vt 0.6875000000000002 0
vt 0.6875000000000002 0.3124999999998437
vt 0.3125000000000002 0.3124999999998437
vt 0 0.6875000000000002
vt 0 0.3125000000000002
vt 0.3125 0.3125000000000002
vt 0.3125 0.6875000000000002
vt 0.6875000000000002 0.9999999999994995
vt 0.3125000000000002 0.9999999999994995
vt 0.3125000000000002 0.6874999999996558
vt 0.6875000000000002 0.6874999999996558
vt 1 0.3125000000000002
vt 1 0.6875000000000002
vt 0.6875 0.6875000000000002
vt 0.6875 0.3125000000000002
vn 1 0 0
vn -1 0 0
vn 0 1 0
vn 0 -1 0
vn 0 0 1
vn 0 0 -1
vn 0 0 -1
vn 0 -1 0
vn 0 0 1
vn 0 1 0
vn 0 0 -1
vn 0 -1 0
vn 0 0 1
vn 0 1 0
vn 0 0 -1
vn -1 0 0
vn 0 0 1
vn 1 0 0
vn 0 0 1
vn -1 0 0
vn 0 0 -1
vn 1 0 0
vn 0 1 0
vn -1 0 0
vn 0 -1 0
vn 1 0 0
vn 0 -1 0
vn -1 0 0
vn 0 1 0
vn 1 0 0
usemtl none
f 2/1/1 1/2/1 3/3/1 4/4/1
f 7/5/2 5/6/2 6/7/2 8/8/2
f 2/9/3 9/10/3 12/11/3 1/12/3
f 3/13/4 11/14/4 10/15/4 4/16/4
f 1/17/5 12/18/5 11/19/5 3/20/5
f 4/21/6 10/22/6 9/23/6 2/24/6
f 29/25/7 31/26/7 30/27/7 32/28/7
f 21/29/8 23/30/8 22/31/8 24/32/8
f 25/33/9 27/34/9 26/35/9 28/36/9
f 17/37/10 19/38/10 18/39/10 20/40/10
f 6/41/11 13/42/11 14/43/11 8/44/11
f 8/45/12 14/46/12 15/47/12 7/48/12
f 7/49/13 15/50/13 16/51/13 5/52/13
f 5/53/14 16/54/14 13/55/14 6/56/14
f 19/57/15 17/58/15 9/59/15 13/60/15
f 18/61/16 19/62/16 13/63/16 16/64/16
f 20/65/17 18/66/17 16/67/17 12/68/17
f 17/69/18 20/70/18 12/71/18 9/72/18
f 23/73/19 21/74/19 11/75/19 15/76/19
f 22/77/20 23/78/20 15/79/20 14/80/20
f 24/81/21 22/82/21 14/83/21 10/84/21
f 21/85/22 24/86/22 10/87/22 11/88/22
f 27/89/23 25/90/23 12/91/23 16/92/23
f 26/93/24 27/94/24 16/95/24 15/96/24
f 28/97/25 26/98/25 15/99/25 11/100/25
f 25/101/26 28/102/26 11/103/26 12/104/26
f 31/105/27 29/106/27 10/107/27 14/108/27
f 30/109/28 31/110/28 14/111/28 13/112/28
f 32/113/29 30/114/29 13/115/29 9/116/29
f 29/117/30 32/118/30 9/119/30 10/120/30