# Made in Blockbench 4.9.1
mtllib sf_player_model.mtl

g body
o body
v 0.3125 1.375 0.1875
v 0.3125 1.375 -0.1875
v 0.3125 0 0.1875
v 0.3125 0 -0.1875
v -0.3125 1.375 -0.1875
v -0.3125 1.375 0.1875
v -0.3125 0 -0.1875
v -0.3125 0 0.1875
vt 0 1
vt 0.15625 1
vt 0.15625 0.65625
vt 0 0.65625
vt 0.3125 1
vt 0.40625 1
vt 0.40625 0.65625
vt 0.3125 0.65625
vt 0.15625 1
vt 0.3125 1
vt 0.3125 0.65625
vt 0.15625 0.65625
vt 0 0.65625
vt 0.09375 0.65625
vt 0.09375 0.3125
vt 0 0.3125
vt 0.5625 0.65625
vt 0.40625 0.65625
vt 0.40625 0.75
vt 0.5625 0.75
vt 0.375 0.53125
vt 0.21875 0.53125
vt 0.21875 0.4375
vt 0.375 0.4375
vn 0 0 -1
vn 1 0 0
vn 0 0 1
vn -1 0 0
vn 0 1 0
vn 0 -1 0
f 4/4/1 7/3/1 5/2/1 2/1/1
f 3/8/2 4/7/2 2/6/2 1/5/2
f 8/12/3 3/11/3 1/10/3 6/9/3
f 7/16/4 8/15/4 6/14/4 5/13/4
f 6/20/5 1/19/5 2/18/5 5/17/5
f 7/24/6 4/23/6 3/22/6 8/21/6
o armL
v 0.5 1.3125 0.0625
v 0.5 1.3125 -0.125
v 0.5 0.625 0.0625
v 0.5 0.625 -0.125
v 0.3125 1.3125 -0.125
v 0.3125 1.3125 0.0625
v 0.3125 0.625 -0.125
v 0.3125 0.625 0.0625
vt 0.46875 0.65625
vt 0.515625 0.65625
vt 0.515625 0.484375
vt 0.46875 0.484375
vt 0.375 0.53125
vt 0.421875 0.53125
vt 0.421875 0.359375
vt 0.375 0.359375
vt 0.421875 0.53125
vt 0.46875 0.53125
vt 0.46875 0.359375
vt 0.421875 0.359375
vt 0.515625 0.65625
vt 0.5625 0.65625
vt 0.5625 0.484375
vt 0.515625 0.484375
vt 0.265625 0.390625
vt 0.21875 0.390625
vt 0.21875 0.4375
vt 0.265625 0.4375
vt 0.3125 0.4375
vt 0.265625 0.4375
vt 0.265625 0.390625
vt 0.3125 0.390625
vn 0 0 -1
vn 1 0 0
vn 0 0 1
vn -1 0 0
vn 0 1 0
vn 0 -1 0
f 12/28/7 15/27/7 13/26/7 10/25/7
f 11/32/8 12/31/8 10/30/8 9/29/8
f 16/36/9 11/35/9 9/34/9 14/33/9
f 15/40/10 16/39/10 14/38/10 13/37/10
f 14/44/11 9/43/11 10/42/11 13/41/11
f 15/48/12 12/47/12 11/46/12 16/45/12
o armR
v -0.3125 1.3125 0.0625
v -0.3125 1.3125 -0.125
v -0.3125 0.625 0.0625
v -0.3125 0.625 -0.125
v -0.5 1.3125 -0.125
v -0.5 1.3125 0.0625
v -0.5 0.625 -0.125
v -0.5 0.625 0.0625
vt 0.46875 0.484375
vt 0.515625 0.484375
vt 0.515625 0.3125
vt 0.46875 0.3125
vt 0.515625 0.484375
vt 0.5625 0.484375
vt 0.5625 0.3125
vt 0.515625 0.3125
vt 0.53125 1
vt 0.578125 1
vt 0.578125 0.828125
vt 0.53125 0.828125
vt 0.5625 0.828125
vt 0.609375 0.828125
vt 0.609375 0.65625
vt 0.5625 0.65625
vt 0.359375 0.390625
vt 0.3125 0.390625
vt 0.3125 0.4375
vt 0.359375 0.4375
vt 0.609375 0.65625
vt 0.5625 0.65625
vt 0.5625 0.609375
vt 0.609375 0.609375
vn 0 0 -1
vn 1 0 0
vn 0 0 1
vn -1 0 0
vn 0 1 0
vn 0 -1 0
f 20/52/13 23/51/13 21/50/13 18/49/13
f 19/56/14 20/55/14 18/54/14 17/53/14
f 24/60/15 19/59/15 17/58/15 22/57/15
f 23/64/16 24/63/16 22/62/16 21/61/16
f 22/68/17 17/67/17 18/66/17 21/65/17
f 23/72/18 20/71/18 19/70/18 24/69/18
o head
v 0.25 1.875 0.25
v 0.25 1.875 -0.25
v 0.25 1.375 0.25
v 0.25 1.375 -0.25
v -0.25 1.875 -0.25
v -0.25 1.875 0.25
v -0.25 1.375 -0.25
v -0.25 1.375 0.25
vt 0.09375 0.65625
vt 0.21875 0.65625
vt 0.21875 0.53125
vt 0.09375 0.53125
vt 0.21875 0.65625
vt 0.34375 0.65625
vt 0.34375 0.53125
vt 0.21875 0.53125
vt 0.34375 0.65625
vt 0.46875 0.65625
vt 0.46875 0.53125
vt 0.34375 0.53125
vt 0.40625 1
vt 0.53125 1
vt 0.53125 0.875
vt 0.40625 0.875
vt 0.53125 0.75
vt 0.40625 0.75
vt 0.40625 0.875
vt 0.53125 0.875
vt 0.21875 0.53125
vt 0.09375 0.53125
vt 0.09375 0.40625
vt 0.21875 0.40625
vn 0 0 -1
vn 1 0 0
vn 0 0 1
vn -1 0 0
vn 0 1 0
vn 0 -1 0
f 28/76/19 31/75/19 29/74/19 26/73/19
f 27/80/20 28/79/20 26/78/20 25/77/20
f 32/84/21 27/83/21 25/82/21 30/81/21
f 31/88/22 32/87/22 30/86/22 29/85/22
f 30/92/23 25/91/23 26/90/23 29/89/23
f 31/96/24 28/95/24 27/94/24 32/93/24
g hat
usemtl hat
o hat
v 0 2.59375 0
v 0.40625 1.78125 0.40625
v 0.40625 1.78125 -0.40625
v -0.40625 1.78125 0.40625
v -0.40625 1.78125 -0.40625
v 0.42613636363636354 1.84375 0.42613636363636354
v -0.42613636363636354 1.84375 0.42613636363636354
v -0.42613636363636354 1.84375 -0.42613636363636354
v 0.42613636363636354 1.84375 -0.42613636363636354
v -0.25568181818181823 1.96875 0.22727272727272727
v 0.25568181818181823 1.96875 0.22727272727272727
v 0.25568181818181823 1.96875 -0.22727272727272727
v -0.25568181818181823 1.96875 -0.22727272727272727
v -0.051136363636363646 2.5 0.04545454545454544
v 0.051136363636363646 2.5 0.04545454545454544
v 0.051136363636363646 2.5 -0.04545454545454544
v -0.051136363636363646 2.5 -0.04545454545454544
v 0.333125 1.78125 0.333125
v -0.333125 1.78125 0.333125
v 0.333125 1.78125 -0.333125
v -0.333125 1.78125 -0.333125
v 0.25187500000000007 1.90625 0.25187500000000007
v -0.25187500000000007 1.90625 0.25187500000000007
v 0.25187500000000007 1.90625 -0.25187500000000007
v -0.25187500000000007 1.90625 -0.25187500000000007
vt 0.625 0.09375
vt 0.59375 0.125
vt 0.0625 0.125
vt 0.03125 0.09375
vt 0.03125 0.09375
vt 0.0625 0.125
vt 0.0625 0.640625
vt 0.03125 0.671875
vt 0.03125 0.671875
vt 0.0625 0.640625
vt 0.59375 0.640625
vt 0.625 0.671875
vt 0.625 0.671875
vt 0.59375 0.640625
vt 0.59375 0.125
vt 0.625 0.09375
vt 0.484375 0.53125
vt 0.359375 0.40625
vt 0.359375 0.34375
vt 0.484375 0.234375
vt 0.171875 0.53125
vt 0.296875 0.40625
vt 0.359375 0.40625
vt 0.484375 0.53125
vt 0.171875 0.234375
vt 0.296875 0.34375
vt 0.296875 0.40625
vt 0.171875 0.53125
vt 0.296875 0.34375
vt 0.359375 0.34375
vt 0.328125 0.375
vt 0.328125 0.375
vt 0.359375 0.34375
vt 0.359375 0.40625
vt 0.328125 0.375
vt 0.359375 0.40625
vt 0.296875 0.40625
vt 0.296875 0.40625
vt 0.296875 0.34375
vt 0.328125 0.375
vt 0.5625 0.984375
vt 0.5625 0.78125
vt 0.578125 0.765625
vt 0.578125 1
vt 0.359375 0.984375
vt 0.5625 0.984375
vt 0.578125 1
vt 0.34375 1
vt 0.359375 0.78125
vt 0.359375 0.984375
vt 0.34375 1
vt 0.34375 0.765625
vt 0.5625 0.78125
vt 0.359375 0.78125
vt 0.34375 0.765625
vt 0.578125 0.765625
vt 0.53125 0.953125
vt 0.53125 0.8125
vt 0.5625 0.78125
vt 0.5625 0.984375
vt 0.390625 0.953125
vt 0.53125 0.953125
vt 0.5625 0.984375
vt 0.359375 0.984375
vt 0.390625 0.8125
vt 0.390625 0.953125
vt 0.359375 0.984375
vt 0.359375 0.78125
vt 0.53125 0.8125
vt 0.390625 0.8125
vt 0.359375 0.78125
vt 0.5625 0.78125
vt 0.59375 0.640625
vt 0.484375 0.53125
vt 0.484375 0.234375
vt 0.59375 0.125
vt 0.0625 0.640625
vt 0.171875 0.53125
vt 0.484375 0.53125
vt 0.59375 0.640625
vt 0.0625 0.125
vt 0.171875 0.234375
vt 0.171875 0.53125
vt 0.0625 0.640625
vt 0.59375 0.125
vt 0.484375 0.234375
vt 0.171875 0.234375
vt 0.0625 0.125
vt 0.53125 0.8125
vt 0.53125 0.953125
vt 0.390625 0.953125
vt 0.390625 0.8125
vt 0.484375 0.234375
vt 0.359375 0.34375
vt 0.296875 0.34375
vt 0.171875 0.234375
vn 0 -0.30320365727694565 0.9529257800132626
vn -0.9529257800132626 -0.30320365727694565 0
vn 0 -0.30320365727694565 -0.9529257800132626
vn 0.9529257800132626 -0.30320365727694565 0
vn 0.9332169260659913 0.35931346885963306 0
vn 0 0.3238068707471621 -0.9461232004643639
vn -0.9332169260659913 0.35931346885963306 0
vn 0 0.4362735065193694 0.8998141071961998
vn 0.8778955729143844 0.47885213068057336 0
vn 0 0.4362735065193694 -0.8998141071961998
vn -0.8778955729143844 0.47885213068057336 0
vn 0 -1 0
vn 0 -1 0
vn 0 -1 0
vn 0 -1 0
vn -0.8384436163006374 -0.5449883505954138 0
vn 0 -0.5449883505954138 -0.8384436163006374
vn 0.8384436163006374 -0.5449883505954138 0
vn 0 -0.5449883505954138 0.8384436163006374
vn 0.5913636636275178 0.8064049958557055 0
vn 0 0.8466365492110048 -0.5321715452183461
vn -0.5913636636275178 0.8064049958557055 0
vn 0 0.8466365492110048 0.5321715452183461
vn 0 -1 0
vn 0 0.3238068707471621 0.9461232004643639
f 34/97/25 38/98/25 39/99/25 36/100/25
f 36/101/26 39/102/26 40/103/26 37/104/26
f 37/105/27 40/106/27 41/107/27 35/108/27
f 35/109/28 41/110/28 38/111/28 34/112/28
f 44/113/29 48/114/29 47/115/29 43/116/29
f 45/117/30 49/118/30 48/119/30 44/120/30
f 42/121/31 46/122/31 49/123/31 45/124/31
f 46/125/32 47/126/32 33/127/32
f 33/128/33 47/129/33 48/130/33
f 33/131/34 48/132/34 49/133/34
f 49/134/35 46/135/35 33/136/35
f 50/137/36 52/138/36 35/139/36 34/140/36
f 51/141/37 50/142/37 34/143/37 36/144/37
f 53/145/38 51/146/38 36/147/38 37/148/38
f 52/149/39 53/150/39 37/151/39 35/152/39
f 54/153/40 56/154/40 52/155/40 50/156/40
f 55/157/41 54/158/41 50/159/41 51/160/41
f 57/161/42 55/162/42 51/163/42 53/164/42
f 56/165/43 57/166/43 53/167/43 52/168/43
f 41/169/44 44/170/44 43/171/44 38/172/44
f 40/173/45 45/174/45 44/175/45 41/176/45
f 39/177/46 42/178/46 45/179/46 40/180/46
f 38/181/47 43/182/47 42/183/47 39/184/47
f 56/185/48 54/186/48 55/187/48 57/188/48
f 43/189/49 47/190/49 46/191/49 42/192/49
